<svg width="138" height="28" viewBox="0 0 138 28" fill="none" xmlns="http://www.w3.org/2000/svg">
    <path
        d="M34.6673 2.89585C34.6673 1.88824 34.4004 0.914765 33.9064 0C32.342 3.03647 28.4948 5.47767 23.5595 6.60952C21.9624 6.1535 19.8807 5.74117 17.4212 5.677V5.67154C17.3925 5.67154 17.3638 5.67291 17.335 5.67427C17.3063 5.67427 17.2775 5.67291 17.2488 5.67154V5.677C14.7894 5.74254 12.7077 6.15487 11.1105 6.60952C6.17387 5.4763 2.32667 3.03647 0.762325 0C0.266882 0.91613 0 1.88824 0 2.89585C0 6.66413 3.72403 9.93681 9.1958 11.5929C10.3222 16.773 11.4486 21.953 12.5736 27.133C13.7013 27.4962 15.3012 27.8894 17.2474 27.9904V28C17.2762 28 17.3049 27.9973 17.3337 27.9959C17.3624 27.9973 17.3911 27.9986 17.4199 28V27.9904C19.3647 27.8894 20.966 27.4962 22.0937 27.133C23.2201 21.953 24.3465 16.773 25.4715 11.5943C30.9419 9.93817 34.6673 6.6655 34.6673 2.89721V2.89585Z"
        fill="white" />
    <path d="M38.6923 26.8982V14.654H34.8889V11.9438H45.5533V14.654H41.8101V26.8982H38.691H38.6923Z" fill="white" />
    <path
        d="M47.1025 26.8982V11.9438H52.8371C53.8704 11.9438 54.786 12.1241 55.5839 12.4859C56.3818 12.8477 57.0087 13.3829 57.4658 14.0915C57.9215 14.8015 58.1501 15.6766 58.1501 16.7211C58.1501 17.7656 57.9147 18.6052 57.4452 19.3207C56.9758 20.0361 56.3449 20.5754 55.5538 20.9372L58.974 26.8996H55.4731L51.7709 20.2955L53.7828 21.4792H50.2216V26.8996H47.1025V26.8982ZM50.2216 18.7677H52.8576C53.2997 18.7677 53.6829 18.6803 54.0045 18.5069C54.3261 18.3335 54.578 18.0919 54.7586 17.7847C54.9393 17.4775 55.0296 17.1225 55.0296 16.7211C55.0296 16.3197 54.9393 15.9456 54.7586 15.637C54.578 15.3298 54.3261 15.0882 54.0045 14.9148C53.6829 14.7414 53.2997 14.654 52.8576 14.654H50.2216V18.7691V18.7677Z"
        fill="white" />
    <path
        d="M59.4175 26.8982L64.4882 11.9438H68.6338L73.7046 26.8982H70.3035L69.2976 23.8467H63.8039L62.798 26.8982H59.4175ZM64.6689 21.1366H68.4313L66.1374 14.071H66.9832L64.6689 21.1366Z"
        fill="white" />
    <path
        d="M75.2524 26.8982V11.9438H80.1425C81.7657 11.9438 83.174 12.2647 84.3675 12.9078C85.5609 13.5508 86.4875 14.4328 87.1444 15.5579C87.8014 16.6815 88.1298 17.9663 88.1298 19.4121C88.1298 20.858 87.8014 22.1455 87.1444 23.276C86.4875 24.4065 85.5609 25.294 84.3675 25.9357C83.174 26.5774 81.7644 26.8996 80.1425 26.8996H75.2524V26.8982ZM78.3715 24.188H80.2233C81.2019 24.188 82.0477 23.9901 82.758 23.5955C83.4683 23.2009 84.0226 22.6452 84.4181 21.9298C84.8137 21.2144 85.0121 20.3747 85.0121 19.4108C85.0121 18.4469 84.8137 17.5908 84.4181 16.8822C84.0226 16.1736 83.4683 15.6248 82.758 15.2356C82.0463 14.8479 81.2019 14.654 80.2233 14.654H78.3715V24.1894V24.188Z"
        fill="white" />
    <path
        d="M97.6282 27.1385C96.5018 27.1385 95.4548 26.9446 94.4886 26.5568C93.5223 26.1691 92.6806 25.623 91.9634 24.9212C91.2463 24.218 90.6851 23.3989 90.2828 22.4622C89.8804 21.5256 89.6792 20.5085 89.6792 19.4107C89.6792 18.313 89.8777 17.2959 90.2732 16.3593C90.6687 15.4226 91.2257 14.6062 91.9429 13.9099C92.6601 13.2149 93.5018 12.6729 94.468 12.2838C95.4343 11.896 96.4868 11.7021 97.6268 11.7021C98.7669 11.7021 99.8207 11.896 100.786 12.2838C101.752 12.6715 102.594 13.2136 103.311 13.9099C104.028 14.6062 104.585 15.4226 104.98 16.3593C105.376 17.2959 105.574 18.313 105.574 19.4107C105.574 20.5085 105.373 21.5256 104.971 22.4622C104.568 23.3989 104.009 24.218 103.29 24.9212C102.573 25.6243 101.731 26.1691 100.765 26.5568C99.7988 26.9446 98.7532 27.1385 97.6254 27.1385H97.6282ZM97.6282 24.3286C98.3125 24.3286 98.9462 24.2085 99.5292 23.9668C100.112 23.7265 100.625 23.3879 101.069 22.9538C101.511 22.5196 101.853 22.0008 102.095 21.3987C102.336 20.7966 102.458 20.1344 102.458 19.4107C102.458 18.6871 102.338 18.029 102.095 17.4338C101.855 16.8385 101.512 16.3197 101.069 15.8787C100.627 15.4377 100.114 15.0991 99.5292 14.8642C98.9462 14.6308 98.3111 14.5133 97.6282 14.5133C96.9452 14.5133 96.3102 14.6308 95.7272 14.8642C95.1441 15.0991 94.6309 15.4363 94.1875 15.8787C93.7454 16.3197 93.4032 16.8385 93.161 17.4338C92.9201 18.029 92.7983 18.6885 92.7983 19.4107C92.7983 20.133 92.9187 20.7952 93.161 21.3987C93.4019 22.0008 93.744 22.5196 94.1875 22.9538C94.6295 23.3893 95.1428 23.7265 95.7272 23.9668C96.3102 24.2071 96.9439 24.3286 97.6282 24.3286Z"
        fill="white" />
    <path
        d="M115.296 27.1385C114.169 27.1385 113.122 26.9446 112.156 26.5568C111.19 26.1691 110.348 25.623 109.631 24.9212C108.914 24.218 108.353 23.3989 107.95 22.4622C107.548 21.5256 107.347 20.5085 107.347 19.4107C107.347 18.313 107.545 17.2959 107.941 16.3593C108.336 15.4226 108.893 14.6062 109.61 13.9099C110.328 13.2149 111.169 12.6729 112.136 12.2838C113.102 11.896 114.154 11.7021 115.294 11.7021C116.434 11.7021 117.488 11.896 118.453 12.2838C119.419 12.6715 120.261 13.2136 120.978 13.9099C121.695 14.6062 122.252 15.4226 122.648 16.3593C123.043 17.2959 123.242 18.313 123.242 19.4107C123.242 20.5085 123.041 21.5256 122.638 22.4622C122.236 23.3989 121.676 24.218 120.958 24.9212C120.241 25.6243 119.399 26.1691 118.433 26.5568C117.466 26.9446 116.421 27.1385 115.293 27.1385H115.296ZM115.296 24.3286C115.98 24.3286 116.614 24.2085 117.197 23.9668C117.78 23.7265 118.293 23.3879 118.736 22.9538C119.178 22.5196 119.521 22.0008 119.763 21.3987C120.004 20.7966 120.126 20.1344 120.126 19.4107C120.126 18.6871 120.005 18.029 119.763 17.4338C119.522 16.8385 119.18 16.3197 118.736 15.8787C118.294 15.4377 117.781 15.0991 117.197 14.8642C116.614 14.6308 115.979 14.5133 115.296 14.5133C114.613 14.5133 113.978 14.6308 113.395 14.8642C112.812 15.0991 112.298 15.4363 111.855 15.8787C111.413 16.3197 111.071 16.8385 110.828 17.4338C110.588 18.029 110.466 18.6885 110.466 19.4107C110.466 20.133 110.586 20.7952 110.828 21.3987C111.069 22.0008 111.412 22.5196 111.855 22.9538C112.297 23.3893 112.81 23.7265 113.395 23.9668C113.978 24.2071 114.611 24.3286 115.296 24.3286Z"
        fill="white" />
    <path
        d="M125.457 26.8982V11.9438H131.191C132.224 11.9438 133.14 12.1241 133.938 12.4859C134.736 12.8477 135.363 13.3829 135.82 14.0915C136.276 14.8015 136.504 15.6766 136.504 16.7211C136.504 17.7656 136.269 18.6052 135.799 19.3207C135.33 20.0361 134.699 20.5754 133.908 20.9372L137.328 26.8996H133.827L130.125 20.2955L132.137 21.4792H128.576V26.8996H125.457V26.8982ZM128.576 18.7677H131.212C131.654 18.7677 132.037 18.6803 132.359 18.5069C132.68 18.3335 132.932 18.0919 133.113 17.7847C133.293 17.4775 133.384 17.1225 133.384 16.7211C133.384 16.3197 133.293 15.9456 133.113 15.637C132.932 15.3298 132.68 15.0882 132.359 14.9148C132.037 14.7414 131.654 14.654 131.212 14.654H128.576V18.7691V18.7677Z"
        fill="white" />
</svg>